<?xml version="1.0" encoding="UTF-8"?>
<svg id="Layer_1" data-name="Layer 1" xmlns="http://www.w3.org/2000/svg" viewBox="0 0 216 218.1">
  <defs>
    <style>
      .cls-1 { fill: #142138; }
      .cls-2 { fill: #47c6ef; }
      .cls-3 { fill: #fff; }
      .cls-4 { fill: #f15a2c; }
    </style>
  </defs>

  <g>
    <path class="cls-3" d="M173.19,56.06l-57.8-31.34c-1.94-1.05-4.13-1.61-6.34-1.61s-4.31.53-6.22,1.54l-58.48,30.96c-4.36,2.31-7.07,6.81-7.07,11.75v82.28c0,4.84,2.63,9.29,6.86,11.63l58.14,32.15c1.96,1.09,4.19,1.66,6.43,1.66s4.47-.57,6.43-1.66l58.14-32.15c4.23-2.34,6.86-6.8,6.86-11.63v-81.89c0-4.88-2.67-9.36-6.96-11.68ZM172.24,149.79c0,1.86-1.01,3.57-2.64,4.47l-58.41,32.3c-.77.43-1.62.64-2.47.64s-1.7-.21-2.47-.64l-58.41-32.3c-1.63-.9-2.64-2.62-2.64-4.47v-82.6c0-1.9,1.04-3.63,2.72-4.52l58.75-31.1c1.52-.8,3.32-.79,4.83.02l58.07,31.49c1.65.89,2.67,2.62,2.67,4.49v82.22Z"/>
    <polygon class="cls-2" points="109.06 35.33 167.98 66.88 109.06 97.37 49.45 66.88 109.06 35.33"/>
    <path class="cls-2" d="M108.71,183.28l-1.29-80.92c0-.92-.5-1.78-1.3-2.24l-56.67-33.24v83.62l59.26,32.78Z"/>
    <path class="cls-4" d="M108.71,183.28l1.3-80.92c0-.92.5-1.78,1.3-2.24l56.67-33.24v83.62s-59.27,32.78-59.27,32.78Z"/>
    <path class="cls-1" d="M167.42,65.8l-58.36,30.2-59.05-30.2-1.17,2.14,56.67,33.25c.42.24.69.7.69,1.2l1.29,80.92h2.44s1.31-80.92,1.31-80.92h0c0-.5.27-.96.7-1.21l56.67-33.24-1.18-2.14Z"/>
    <g>
      <polygon class="cls-1" points="101.75 126.67 98.52 122.99 79.67 136.45 79.58 128.89 83.97 126.26 83.97 118.36 79.48 121.14 79.38 113.4 90.38 106.04 86.48 101.14 79.28 105.08 79.12 92.44 74.88 90.21 74.57 102.15 68.69 92.58 63.62 94.89 74.35 110.95 74.21 116.29 68.03 108.46 68.02 106.38 63.26 101.71 62.5 109.01 74 124.46 73.83 131 55.83 102.55 54.36 109.28 60.38 119.31 53.69 116.75 53.69 121.88 65.07 126.67 73.57 141.43 73.14 157.94 65.14 156.37 65.14 160.25 88.1 172.18 88.1 167.56 79.98 160.85 79.75 142.39 86.25 137.49 100.75 143.29 100.97 138.71 91.27 133.81 101.75 126.67"/>
      <polygon class="cls-1" points="87.26 123.9 91.83 121.17 91.83 113.27 87.26 116.1 87.26 123.9"/>
    </g>
  </g>
</svg>