<?xml version="1.0" encoding="UTF-8"?>
<svg id="Layer_1" data-name="Layer 1" xmlns="http://www.w3.org/2000/svg" viewBox="0 0 50.33 50.82">
  <defs>
    <style>
      .cls-1 { fill: #142138; }
      .cls-2 { fill: #47c6ef; }
      .cls-3 { fill: #fff; }
      .cls-4 { fill: #f15a2c; }
    </style>
  </defs>
  <rect class="cls-1" width="50.33" height="50.82"/>
  <g>
    <path class="cls-3" d="M40.35,13.06l-13.47-7.3c-.45-.25-.96-.37-1.48-.37s-1,.12-1.45.36l-13.63,7.21c-1.02.54-1.65,1.59-1.65,2.74v19.17c0,1.13.61,2.17,1.6,2.71l13.55,7.49c.46.25.98.39,1.5.39s1.04-.13,1.5-.39l13.55-7.49c.99-.55,1.6-1.58,1.6-2.71V15.78c0-1.14-.62-2.18-1.62-2.72ZM40.13,34.9c0,.43-.24.83-.61,1.04l-13.61,7.53c-.18.1-.38.15-.58.15s-.4-.05-.58-.15l-13.61-7.53c-.38-.21-.61-.61-.61-1.04V15.66c0-.44.24-.85.63-1.05l13.69-7.25c.35-.19.77-.18,1.13,0l13.53,7.34c.38.21.62.61.62,1.05v19.16Z"/>
    <polygon class="cls-2" points="25.41 8.23 39.14 15.58 25.41 22.69 11.52 15.58 25.41 8.23"/>
    <path class="cls-2" d="M25.33,42.71l-.3-18.85c0-.22-.12-.41-.3-.52l-13.2-7.75v19.48l13.81,7.64Z"/>
    <path class="cls-4" d="M25.33,42.71l.3-18.85c0-.22.12-.41.3-.52l13.2-7.75v19.48s-13.81,7.64-13.81,7.64Z"/>
    <path class="cls-1" d="M39.01,15.33l-13.6,7.04-13.76-7.04-.27.5,13.21,7.75c.1.06.16.16.16.28l.3,18.85h.57s.3-18.85.3-18.85h0c0-.12.06-.22.16-.28l13.2-7.75-.27-.5Z"/>
    <g>
      <polygon class="cls-1" points="23.71 29.52 22.96 28.66 18.56 31.8 18.54 30.03 19.57 29.42 19.57 27.58 18.52 28.23 18.5 26.42 21.06 24.71 20.15 23.57 18.47 24.48 18.44 21.54 17.45 21.02 17.38 23.8 16 21.57 14.82 22.11 17.32 25.85 17.29 27.1 15.85 25.27 15.85 24.79 14.74 23.7 14.56 25.4 17.24 29 17.2 30.52 13.01 23.9 12.67 25.46 14.07 27.8 12.51 27.2 12.51 28.4 15.16 29.52 17.14 32.95 17.04 36.8 15.18 36.44 15.18 37.34 20.53 40.12 20.53 39.04 18.64 37.48 18.58 33.18 20.1 32.04 23.48 33.39 23.53 32.32 21.27 31.18 23.71 29.52"/>
      <polygon class="cls-1" points="20.33 28.87 21.4 28.23 21.4 26.39 20.33 27.05 20.33 28.87"/>
    </g>
  </g>
</svg>