<?xml version="1.0" encoding="UTF-8" standalone="no"?>
<!-- Created with Inkscape (http://www.inkscape.org/) -->

<svg
   version="1.1"
   id="svg1"
   width="686.36536"
   height="242.216"
   viewBox="0 0 686.36536 242.216"
   xmlns="http://www.w3.org/2000/svg"
   xmlns:svg="http://www.w3.org/2000/svg">
  <defs
     id="defs1" />
  <g
     id="layer-MC0">
    <path
       id="path2"
       d="m 0,0 c 1.298,0.933 1.948,2.375 1.948,4.33 0,3.863 -2.578,5.795 -7.733,5.795 h -11.33 V -1.399 h 11.33 C -3.228,-1.399 -1.299,-0.933 0,0 M -17.115,28.975 V 17.984 h 9.651 c 2.398,0 4.217,0.467 5.456,1.399 1.238,0.932 1.858,2.308 1.858,4.13 0,1.82 -0.62,3.185 -1.858,4.096 -1.239,0.91 -3.058,1.366 -5.456,1.366 z M 9.681,10.491 C 11.04,8.514 11.72,6.083 11.72,3.197 11.72,-0.889 10.29,-4.03 7.433,-6.228 4.576,-8.426 0.409,-9.525 -5.066,-9.525 h -21.7 v 46.626 h 20.502 c 5.115,0 9.041,-1.089 11.779,-3.264 2.737,-2.176 4.106,-5.129 4.106,-8.859 0,-2.264 -0.489,-4.286 -1.468,-6.061 C 7.173,17.14 5.805,15.741 4.046,14.72 6.444,13.877 8.322,12.466 9.681,10.491"
       style="fill:#ffffff;fill-opacity:1;fill-rule:nonzero;stroke:none"
       transform="matrix(1.3333333,0,0,-1.3333333,269.7012,119.79253)" />
    <path
       id="path3"
       d="m 0,0 c 1.238,0.821 2.118,2.031 2.638,3.63 v 3.663 h -6.415 c -3.836,0 -5.755,-1.399 -5.755,-4.196 0,-1.332 0.47,-2.388 1.409,-3.164 0.939,-0.777 2.228,-1.166 3.867,-1.166 1.598,0 3.017,0.411 4.256,1.233 M 7.973,24.711 C 10.65,22.069 11.99,18.084 11.99,12.755 V -7.693 H 3.237 v 4.462 c -1.759,-3.33 -5.035,-4.995 -9.831,-4.995 -2.479,0 -4.626,0.466 -6.444,1.399 -1.819,0.932 -3.208,2.219 -4.167,3.863 -0.959,1.642 -1.438,3.507 -1.438,5.595 0,3.33 1.128,5.95 3.386,7.859 2.258,1.909 5.745,2.865 10.461,2.865 h 7.434 c 0,2.264 -0.62,4.006 -1.859,5.228 -1.239,1.221 -3.097,1.832 -5.575,1.832 -1.718,0 -3.407,-0.3 -5.065,-0.899 -1.659,-0.6 -3.068,-1.41 -4.227,-2.431 l -3.357,7.26 c 1.759,1.376 3.867,2.442 6.325,3.197 2.458,0.755 4.985,1.133 7.583,1.133 4.995,0 8.832,-1.322 11.51,-3.964"
       style="fill:#ffffff;fill-opacity:1;fill-rule:nonzero;stroke:none"
       transform="matrix(1.3333333,0,0,-1.3333333,320.3364,122.23453)" />
    <path
       id="path4"
       d="m 0,0 c -2.558,0.733 -4.596,1.653 -6.115,2.764 l 3.118,7.46 C -1.558,9.202 0.18,8.369 2.218,7.726 4.256,7.082 6.254,6.76 8.213,6.76 c 3.956,0 5.934,1.088 5.934,3.265 0,1.02 -0.539,1.753 -1.618,2.197 -1.079,0.444 -2.738,0.822 -4.976,1.133 -2.637,0.443 -4.816,0.954 -6.534,1.532 -1.719,0.576 -3.207,1.598 -4.466,3.064 -1.259,1.465 -1.888,3.552 -1.888,6.261 0,2.264 0.589,4.273 1.768,6.028 1.179,1.754 2.897,3.119 5.156,4.096 2.257,0.976 4.925,1.466 8.003,1.466 2.278,0 4.545,-0.278 6.804,-0.833 2.257,-0.556 4.126,-1.322 5.605,-2.298 l -3.117,-7.393 c -2.839,1.775 -5.935,2.664 -9.292,2.664 -1.999,0 -3.498,-0.311 -4.496,-0.933 -1,-0.622 -1.499,-1.421 -1.499,-2.397 0,-1.111 0.539,-1.888 1.619,-2.332 1.078,-0.444 2.796,-0.866 5.155,-1.265 2.638,-0.489 4.796,-1.011 6.474,-1.566 1.679,-0.555 3.137,-1.565 4.376,-3.03 C 22.46,14.953 23.08,12.91 23.08,10.291 23.08,8.07 22.48,6.094 21.281,4.363 20.082,2.631 18.334,1.287 16.036,0.333 13.737,-0.622 11.01,-1.099 7.853,-1.099 5.175,-1.099 2.557,-0.733 0,0"
       style="fill:#ffffff;fill-opacity:1;fill-rule:nonzero;stroke:none"
       transform="matrix(1.3333333,0,0,-1.3333333,355.5844,131.73733)" />
    <path
       id="path5"
       d="m 0,0 c -1.439,-1.332 -2.318,-3.153 -2.638,-5.462 h 15.886 c -0.32,2.265 -1.199,4.074 -2.637,5.429 C 9.172,1.321 7.413,1.999 5.335,1.999 3.217,1.999 1.439,1.332 0,0 M 21.881,-11.523 H -2.518 c 0.44,-2.221 1.478,-3.975 3.117,-5.262 1.639,-1.289 3.677,-1.932 6.115,-1.932 1.678,0 3.167,0.277 4.466,0.833 1.298,0.555 2.508,1.432 3.627,2.631 l 4.976,-5.995 c -3.038,-3.863 -7.474,-5.795 -13.309,-5.795 -3.637,0 -6.854,0.788 -9.651,2.365 -2.798,1.575 -4.956,3.763 -6.475,6.561 -1.519,2.797 -2.278,5.972 -2.278,9.525 0,3.507 0.75,6.671 2.248,9.491 1.499,2.82 3.557,5.018 6.175,6.594 2.617,1.576 5.545,2.365 8.782,2.365 3.157,0 6.015,-0.756 8.573,-2.265 2.557,-1.51 4.565,-3.674 6.024,-6.494 1.459,-2.82 2.188,-6.095 2.188,-9.825 0,-0.133 -0.059,-1.065 -0.179,-2.797"
       style="fill:#ffffff;fill-opacity:1;fill-rule:nonzero;stroke:none"
       transform="matrix(1.3333333,0,0,-1.3333333,410.73547,97.146)" />
    <path
       id="path6"
       d="m 0,0 h 9.711 v -37.833 h 21.042 v -8.793 H 0 Z"
       style="fill:#f15a2c;fill-opacity:1;fill-rule:nonzero;stroke:none"
       transform="matrix(1.3333333,0,0,-1.3333333,453.3376,70.325067)" />
    <path
       id="path7"
       d="m 0,0 c 1.538,1.799 2.308,4.207 2.308,7.227 0,3.019 -0.77,5.429 -2.308,7.227 -1.539,1.798 -3.507,2.698 -5.905,2.698 -2.398,0 -4.376,-0.9 -5.935,-2.698 -1.558,-1.798 -2.337,-4.208 -2.337,-7.227 0,-3.02 0.779,-5.428 2.337,-7.227 1.559,-1.798 3.537,-2.697 5.935,-2.697 2.398,0 4.366,0.899 5.905,2.697 m -15.047,-8.859 c -2.697,1.576 -4.806,3.764 -6.324,6.561 -1.519,2.798 -2.278,5.972 -2.278,9.525 0,3.552 0.759,6.728 2.278,9.525 1.518,2.797 3.627,4.984 6.324,6.561 2.698,1.576 5.745,2.365 9.142,2.365 3.397,0 6.434,-0.789 9.112,-2.365 2.677,-1.577 4.775,-3.764 6.295,-6.561 1.518,-2.797 2.278,-5.973 2.278,-9.525 0,-3.553 -0.76,-6.727 -2.278,-9.525 -1.52,-2.797 -3.618,-4.985 -6.295,-6.561 -2.678,-1.577 -5.715,-2.364 -9.112,-2.364 -3.397,0 -6.444,0.787 -9.142,2.364"
       style="fill:#f15a2c;fill-opacity:1;fill-rule:nonzero;stroke:none"
       transform="matrix(1.3333333,0,0,-1.3333333,532.74667,118.23853)" />
    <path
       id="path8"
       d="m 0,0 c -0.92,-0.756 -2.049,-1.322 -3.387,-1.699 -1.339,-0.376 -2.748,-0.566 -4.226,-0.566 -3.837,0 -6.804,1.088 -8.902,3.264 -2.099,2.175 -3.148,5.372 -3.148,9.591 v 14.721 h -4.975 v 7.993 h 4.975 v 8.726 h 9.352 v -8.726 h 8.033 v -7.993 h -8.033 V 10.724 c 0,-1.51 0.349,-2.676 1.049,-3.497 0.699,-0.822 1.688,-1.233 2.968,-1.233 1.478,0 2.736,0.444 3.776,1.333 z"
       style="fill:#f15a2c;fill-opacity:1;fill-rule:nonzero;stroke:none"
       transform="matrix(1.3333333,0,0,-1.3333333,588.49773,130.1832)" />
    <path
       id="path9"
       d="m 0,0 c -2.558,0.733 -4.596,1.653 -6.115,2.764 l 3.118,7.46 C -1.559,9.202 0.18,8.369 2.218,7.726 4.256,7.082 6.254,6.76 8.213,6.76 c 3.956,0 5.934,1.088 5.934,3.265 0,1.02 -0.539,1.753 -1.618,2.197 -1.079,0.444 -2.738,0.822 -4.976,1.133 -2.638,0.443 -4.816,0.954 -6.534,1.532 -1.719,0.576 -3.207,1.598 -4.466,3.064 -1.259,1.465 -1.888,3.552 -1.888,6.261 0,2.264 0.589,4.273 1.768,6.028 1.178,1.754 2.897,3.119 5.155,4.096 2.258,0.976 4.926,1.466 8.004,1.466 2.277,0 4.545,-0.278 6.803,-0.833 2.258,-0.556 4.126,-1.322 5.605,-2.298 l -3.117,-7.393 c -2.838,1.775 -5.935,2.664 -9.291,2.664 -1.999,0 -3.498,-0.311 -4.497,-0.933 -0.999,-0.622 -1.498,-1.421 -1.498,-2.397 0,-1.111 0.539,-1.888 1.618,-2.332 1.079,-0.444 2.797,-0.866 5.156,-1.265 2.638,-0.489 4.795,-1.011 6.474,-1.566 1.679,-0.555 3.137,-1.565 4.376,-3.03 1.238,-1.466 1.858,-3.509 1.858,-6.128 C 23.079,8.07 22.48,6.094 21.281,4.363 20.082,2.631 18.333,1.287 16.036,0.333 13.737,-0.622 11.01,-1.099 7.853,-1.099 5.175,-1.099 2.557,-0.733 0,0"
       style="fill:#f15a2c;fill-opacity:1;fill-rule:nonzero;stroke:none"
       transform="matrix(1.3333333,0,0,-1.3333333,603.5252,131.73733)" />
    <path
       id="path10"
       d="M 0,0 V -5.378 H 6.962 V -7.273 H 0 V -13.51 H -1.983 V 1.917 H 7.815 L 7.815,0 Z"
       style="fill:#ffffff;fill-opacity:1;fill-rule:nonzero;stroke:none"
       transform="matrix(1.3333333,0,0,-1.3333333,236.65733,152.98587)" />
    <path
       id="path11"
       d="M 0,0 C 0.661,0.602 0.992,1.462 0.992,2.578 0.992,3.695 0.661,4.551 0,5.146 -0.661,5.741 -1.62,6.039 -2.876,6.039 h -3.372 v -6.943 h 3.372 C -1.62,-0.904 -0.661,-0.603 0,0 m 1.051,-7.472 -2.995,4.739 c -0.37,-0.03 -0.661,-0.044 -0.873,-0.044 H -6.248 V -7.472 H -8.232 V 7.956 h 5.415 c 1.799,0 3.214,-0.478 4.245,-1.432 C 2.46,5.568 2.975,4.254 2.975,2.578 2.975,1.388 2.711,0.374 2.182,-0.463 1.653,-1.3 0.899,-1.911 -0.079,-2.292 l 3.292,-5.18 z"
       style="fill:#ffffff;fill-opacity:1;fill-rule:nonzero;stroke:none"
       transform="matrix(1.3333333,0,0,-1.3333333,263.76627,161.03733)" />
    <path
       id="path12"
       d="M 0,0 -2.995,7.56 -5.99,0 Z M 0.694,-1.763 H -6.685 L -8.212,-5.62 h -2.043 l 6.288,15.427 h 1.964 L 4.304,-5.62 H 2.222 Z"
       style="fill:#ffffff;fill-opacity:1;fill-rule:nonzero;stroke:none"
       transform="matrix(1.3333333,0,0,-1.3333333,284.87093,163.506)" />
    <path
       id="path13"
       d="m 0,0 c -1.118,0.683 -1.993,1.624 -2.628,2.821 -0.635,1.198 -0.952,2.546 -0.952,4.044 0,1.499 0.317,2.847 0.952,4.045 0.635,1.197 1.514,2.138 2.638,2.821 1.124,0.683 2.38,1.025 3.769,1.025 1.084,0 2.076,-0.202 2.975,-0.606 0.899,-0.405 1.666,-1.003 2.301,-1.797 L 7.766,10.965 C 6.721,12.184 5.418,12.794 3.858,12.794 2.827,12.794 1.894,12.537 1.061,12.023 0.228,11.508 -0.423,10.8 -0.893,9.896 -1.362,8.992 -1.597,7.982 -1.597,6.865 c 0,-1.116 0.235,-2.126 0.704,-3.03 0.47,-0.903 1.121,-1.613 1.954,-2.127 0.833,-0.514 1.766,-0.771 2.797,-0.771 1.547,0 2.85,0.617 3.908,1.851 L 9.055,1.4 C 8.42,0.606 7.65,0.004 6.744,-0.408 5.838,-0.819 4.843,-1.025 3.759,-1.025 2.37,-1.025 1.117,-0.683 0,0"
       style="fill:#ffffff;fill-opacity:1;fill-rule:nonzero;stroke:none"
       transform="matrix(1.3333333,0,0,-1.3333333,298.34627,169.8684)" />
    <path
       id="path14"
       d="M 0,0 H -4.761 V 1.917 H 6.724 V 0 H 1.964 V -13.51 H 0 Z"
       style="fill:#ffffff;fill-opacity:1;fill-rule:nonzero;stroke:none"
       transform="matrix(1.3333333,0,0,-1.3333333,319.64987,152.98587)" />
    <path
       id="path15"
       d="m 250.111,68.84 h 1.984 V 53.412 h -1.984 z"
       style="fill:#ffffff;fill-opacity:1;fill-rule:nonzero;stroke:none"
       transform="matrix(1.3333333,0,0,-1.3333333,0,242.216)" />
    <path
       id="path16"
       d="M 0,0 C 0.813,0.514 1.455,1.223 1.924,2.127 2.393,3.03 2.628,4.041 2.628,5.157 2.628,6.274 2.393,7.284 1.924,8.188 1.455,9.091 0.813,9.8 0,10.315 c -0.813,0.513 -1.729,0.771 -2.747,0.771 -1.019,0 -1.941,-0.258 -2.767,-0.771 C -6.341,9.8 -6.989,9.091 -7.458,8.188 -7.928,7.284 -8.162,6.274 -8.162,5.157 c 0,-1.116 0.234,-2.127 0.704,-3.03 0.469,-0.904 1.117,-1.613 1.944,-2.127 0.826,-0.515 1.748,-0.772 2.767,-0.772 1.018,0 1.934,0.257 2.747,0.772 m -6.536,-1.708 c -1.124,0.683 -2.007,1.627 -2.648,2.832 -0.642,1.205 -0.962,2.549 -0.962,4.033 0,1.484 0.32,2.829 0.962,4.033 0.641,1.205 1.524,2.149 2.648,2.833 1.124,0.683 2.387,1.025 3.789,1.025 1.388,0 2.644,-0.342 3.768,-1.025 C 2.145,11.339 3.025,10.399 3.66,9.202 4.295,8.004 4.612,6.656 4.612,5.157 4.612,3.659 4.295,2.31 3.66,1.113 3.025,-0.085 2.145,-1.025 1.021,-1.708 c -1.124,-0.683 -2.38,-1.025 -3.768,-1.025 -1.402,0 -2.665,0.342 -3.789,1.025"
       style="fill:#ffffff;fill-opacity:1;fill-rule:nonzero;stroke:none"
       transform="matrix(1.3333333,0,0,-1.3333333,355.68453,167.59053)" />
    <path
       id="path17"
       d="m 0,0 v -15.428 h -1.627 l -8.331,11.505 v -11.505 h -1.983 V 0 h 1.626 l 8.331,-11.505 0,11.505 z"
       style="fill:#ffffff;fill-opacity:1;fill-rule:nonzero;stroke:none"
       transform="matrix(1.3333333,0,0,-1.3333333,383.7852,150.42933)" />
    <path
       id="path18"
       d="M 0,0 -2.995,7.56 -5.99,0 Z M 0.694,-1.763 H -6.685 L -8.212,-5.62 h -2.043 l 6.288,15.427 h 1.964 L 4.305,-5.62 H 2.222 Z"
       style="fill:#ffffff;fill-opacity:1;fill-rule:nonzero;stroke:none"
       transform="matrix(1.3333333,0,0,-1.3333333,402.1924,163.506)" />
    <path
       id="path19"
       d="m 0,0 h 1.984 v -13.51 h 7.518 v -1.918 H 0 Z"
       style="fill:#ffffff;fill-opacity:1;fill-rule:nonzero;stroke:none"
       transform="matrix(1.3333333,0,0,-1.3333333,412.66573,150.42933)" />
    <path
       id="path20"
       d="M 0,0 C 0.661,0.602 0.992,1.462 0.992,2.578 0.992,3.695 0.661,4.551 0,5.146 -0.661,5.741 -1.62,6.039 -2.876,6.039 h -3.372 v -6.943 h 3.372 C -1.62,-0.904 -0.661,-0.603 0,0 m 1.051,-7.472 -2.995,4.739 c -0.37,-0.03 -0.661,-0.044 -0.872,-0.044 H -6.248 V -7.472 H -8.232 V 7.956 h 5.416 c 1.798,0 3.213,-0.478 4.244,-1.432 C 2.459,5.568 2.976,4.254 2.976,2.578 2.976,1.388 2.711,0.374 2.182,-0.463 1.653,-1.3 0.899,-1.911 -0.079,-2.292 l 3.292,-5.18 z"
       style="fill:#ffffff;fill-opacity:1;fill-rule:nonzero;stroke:none"
       transform="matrix(1.3333333,0,0,-1.3333333,450.43307,161.03733)" />
    <path
       id="path21"
       d="M 0,0 V -1.917 H -10.076 V 13.51 h 9.798 V 11.593 H -8.093 V 6.854 H -1.13 V 4.981 H -8.093 V 0 Z"
       style="fill:#ffffff;fill-opacity:1;fill-rule:nonzero;stroke:none"
       transform="matrix(1.3333333,0,0,-1.3333333,474.10333,168.4432)" />
    <path
       id="path22"
       d="M 0,0 -2.995,7.56 -5.99,0 Z M 0.694,-1.763 H -6.685 L -8.212,-5.62 h -2.043 l 6.288,15.427 h 1.964 L 4.305,-5.62 H 2.222 Z"
       style="fill:#ffffff;fill-opacity:1;fill-rule:nonzero;stroke:none"
       transform="matrix(1.3333333,0,0,-1.3333333,491.24173,163.506)" />
    <path
       id="path23"
       d="m 0,0 h 1.984 v -13.51 h 7.517 v -1.918 H 0 Z"
       style="fill:#ffffff;fill-opacity:1;fill-rule:nonzero;stroke:none"
       transform="matrix(1.3333333,0,0,-1.3333333,501.7152,150.42933)" />
    <path
       id="path24"
       d="M 0,0 V -1.917 H -10.076 V 13.51 h 9.798 V 11.593 H -8.093 V 6.854 H -1.13 V 4.981 H -8.093 V 0 Z"
       style="fill:#ffffff;fill-opacity:1;fill-rule:nonzero;stroke:none"
       transform="matrix(1.3333333,0,0,-1.3333333,541.94147,168.4432)" />
    <path
       id="path25"
       d="m 0,0 c -0.972,0.36 -1.736,0.826 -2.291,1.399 l 0.734,1.72 C -1.028,2.59 -0.351,2.16 0.476,1.829 1.302,1.499 2.152,1.334 3.025,1.334 c 1.151,0 2.01,0.216 2.579,0.65 0.568,0.433 0.853,1.01 0.853,1.73 0,0.529 -0.156,0.958 -0.466,1.289 C 5.679,5.334 5.296,5.587 4.84,5.763 4.384,5.94 3.739,6.138 2.906,6.358 1.861,6.637 1.018,6.917 0.377,7.196 c -0.642,0.279 -1.19,0.709 -1.646,1.29 -0.457,0.58 -0.685,1.362 -0.685,2.346 0,0.823 0.195,1.565 0.585,2.227 0.39,0.661 0.982,1.19 1.776,1.587 0.793,0.396 1.778,0.595 2.955,0.595 0.82,0 1.627,-0.118 2.42,-0.353 0.794,-0.235 1.474,-0.573 2.043,-1.014 L 7.171,12.111 C 6.589,12.522 5.967,12.835 5.306,13.048 4.645,13.261 3.997,13.367 3.362,13.367 2.238,13.367 1.395,13.139 0.833,12.684 0.271,12.228 -0.01,11.64 -0.01,10.921 -0.01,10.392 0.149,9.962 0.466,9.631 0.783,9.301 1.177,9.043 1.647,8.86 2.116,8.676 2.754,8.482 3.561,8.276 4.605,7.997 5.445,7.717 6.08,7.439 6.714,7.159 7.26,6.733 7.716,6.16 8.173,5.587 8.4,4.816 8.4,3.846 8.4,3.038 8.202,2.299 7.805,1.631 7.409,0.962 6.807,0.433 6,0.044 5.193,-0.345 4.202,-0.54 3.025,-0.54 1.98,-0.54 0.972,-0.36 0,0"
       style="fill:#ffffff;fill-opacity:1;fill-rule:nonzero;stroke:none"
       transform="matrix(1.3333333,0,0,-1.3333333,549.57213,170.5148)" />
    <path
       id="path26"
       d="M 0,0 H -4.761 V 1.917 H 6.724 V 0 H 1.964 V -13.51 H 0 Z"
       style="fill:#ffffff;fill-opacity:1;fill-rule:nonzero;stroke:none"
       transform="matrix(1.3333333,0,0,-1.3333333,570.02933,152.98587)" />
    <path
       id="path27"
       d="M 0,0 -2.995,7.56 -5.99,0 Z M 0.694,-1.763 H -6.685 L -8.212,-5.62 h -2.043 l 6.288,15.427 h 1.964 L 4.305,-5.62 H 2.222 Z"
       style="fill:#ffffff;fill-opacity:1;fill-rule:nonzero;stroke:none"
       transform="matrix(1.3333333,0,0,-1.3333333,593.80533,163.506)" />
    <path
       id="path28"
       d="M 0,0 H -4.761 V 1.917 H 6.724 V 0 H 1.964 V -13.51 H 0 Z"
       style="fill:#ffffff;fill-opacity:1;fill-rule:nonzero;stroke:none"
       transform="matrix(1.3333333,0,0,-1.3333333,607.03027,152.98587)" />
    <path
       id="path29"
       d="M 0,0 V -1.917 H -10.076 V 13.51 h 9.798 V 11.593 H -8.093 V 6.854 H -1.13 V 4.981 H -8.093 V 0 Z"
       style="fill:#ffffff;fill-opacity:1;fill-rule:nonzero;stroke:none"
       transform="matrix(1.3333333,0,0,-1.3333333,634.29773,168.4432)" />
    <path
       id="path30"
       d="m 0,0 c 0,-1.383 -0.752,-2.658 -1.962,-3.328 l -43.47,-24.039 c -0.576,-0.318 -1.208,-0.478 -1.841,-0.478 -0.632,0 -1.264,0.16 -1.84,0.478 l -43.469,24.038 c -1.211,0.671 -1.963,1.946 -1.963,3.329 v 61.472 c 0,1.413 0.776,2.701 2.025,3.362 l 43.722,23.144 c 1.128,0.597 2.471,0.59 3.593,-0.019 L -1.991,64.527 C -0.763,63.861 0,62.58 0,61.183 Z m 0.702,69.758 -43.014,23.324 c -1.443,0.782 -3.073,1.196 -4.715,1.196 -1.606,0 -3.206,-0.398 -4.627,-1.149 L -95.173,70.092 c -3.247,-1.718 -5.264,-5.068 -5.264,-8.742 V 0.119 c 0,-3.598 1.956,-6.915 5.105,-8.656 l 43.266,-23.926 c 1.462,-0.808 3.117,-1.235 4.787,-1.235 1.67,0 3.325,0.427 4.787,1.235 L 0.774,-8.537 c 3.149,1.741 5.105,5.058 5.105,8.656 v 60.943 c 0,3.633 -1.984,6.964 -5.177,8.696"
       style="fill:#ffffff;fill-opacity:1;fill-rule:nonzero;stroke:none"
       transform="matrix(1.3333333,0,0,-1.3333333,193.29693,158.5804)" />
    <path
       id="path31"
       d="M 0,0 43.846,-23.482 0,-46.167 -44.361,-23.482 Z"
       style="fill:#47c6ef;fill-opacity:1;fill-rule:nonzero;stroke:none"
       transform="matrix(1.3333333,0,0,-1.3333333,130.60987,45.0052)" />
    <path
       id="path32"
       d="m 0,0 -0.958,60.216 c -0.005,0.688 -0.373,1.322 -0.969,1.667 l -42.17,24.738 V 24.393 Z"
       style="fill:#47c6ef;fill-opacity:1;fill-rule:nonzero;stroke:none"
       transform="matrix(1.3333333,0,0,-1.3333333,130.2584,191.8092)" />
    <path
       id="path33"
       d="m 0,0 0.971,60.216 c 0.005,0.688 0.373,1.322 0.969,1.667 L 44.11,86.621 V 24.393 Z"
       style="fill:#f15a2c;fill-opacity:1;fill-rule:nonzero;stroke:none"
       transform="matrix(1.3333333,0,0,-1.3333333,130.2584,191.8092)" />
    <path
       id="path34"
       d="m 0,0 -43.431,-22.471 -43.945,22.473 -0.873,-1.592 42.175,-24.741 c 0.316,-0.182 0.513,-0.522 0.516,-0.895 l 0.957,-60.216 h 1.817 l 0.971,60.215 v 0.009 c 0.002,0.365 0.2,0.705 0.52,0.89 L 0.877,-1.59 Z"
       style="fill:#142138;fill-opacity:1;fill-rule:nonzero;stroke:none"
       transform="matrix(1.3333333,0,0,-1.3333333,188.5148,75.239067)" />
    <path
       id="path35"
       d="m 0,0 -2.407,2.738 -14.025,-10.018 -0.071,5.631 3.267,1.953 v 5.878 l -3.34,-2.064 -0.073,5.756 8.185,5.478 -2.905,3.651 -5.358,-2.934 -0.119,9.407 -3.153,1.659 -0.228,-8.883 -4.381,7.116 -3.772,-1.718 7.985,-11.951 -0.102,-3.976 -4.602,5.832 -0.003,1.548 -3.546,3.474 -0.56,-5.432 8.555,-11.502 -0.124,-4.863 -13.4,21.171 -1.091,-5.006 4.481,-7.468 -4.979,1.908 V 3.568 L -27.301,0 l 6.325,-10.982 -0.315,-12.29 -5.957,1.17 v -2.885 l 17.089,-8.878 v 3.44 l -6.044,4.993 -0.173,13.733 4.841,3.65 10.788,-4.315 0.166,3.402 -7.219,3.651 z"
       style="fill:#142138;fill-opacity:1;fill-rule:nonzero;stroke:none"
       transform="matrix(1.3333333,0,0,-1.3333333,123.3564,135.6368)" />
    <path
       id="path36"
       d="M 0,0 3.402,2.033 V 7.911 L 0,5.809 Z"
       style="fill:#142138;fill-opacity:1;fill-rule:nonzero;stroke:none"
       transform="matrix(1.3333333,0,0,-1.3333333,108.97267,132.88933)" />
  </g>
</svg>
